<?xml version="1.0" encoding="UTF-8"?>
<svg id="_レイヤー_3" data-name="レイヤー 3" xmlns="http://www.w3.org/2000/svg" viewBox="0 0 2976.53 1030.03">
  <defs>
    <style>
      .cls-1 {
        fill: #4e80b2;
      }

      .cls-1, .cls-2, .cls-3 {
        stroke-width: 0px;
      }

      .cls-2 {
        fill: #2a3a50;
      }

      .cls-3 {
        fill: #a7c2cc;
      }
    </style>
  </defs>
  <g>
    <g>
      <rect class="cls-3" x="771.2" y="321.19" width="94.34" height="232.6" transform="translate(-69.65 706.81) rotate(-45)"/>
      <rect class="cls-3" x="503.55" y="319.08" width="94.34" height="232.6" transform="translate(-146.56 516.94) rotate(-45)"/>
      <rect class="cls-3" x="637.91" y="453.43" width="94.34" height="232.6" transform="translate(-202.21 651.29) rotate(-45)"/>
    </g>
    <g>
      <rect class="cls-1" x="695.73" y="240.93" width="94.55" height="282.16" transform="translate(487.74 -413.5) rotate(45)"/>
      <rect class="cls-1" x="827.38" y="374.59" width="94.55" height="282.16" transform="translate(620.82 -467.44) rotate(45)"/>
      <rect class="cls-1" x="429.77" y="240.5" width="94.55" height="282.16" transform="translate(409.54 -225.56) rotate(45)"/>
      <rect class="cls-1" x="694.67" y="507.23" width="94.55" height="282.32" transform="translate(675.79 -334.73) rotate(45)"/>
      <rect class="cls-1" x="562.98" y="373.65" width="94.55" height="282.21" transform="translate(542.73 -280.75) rotate(45)"/>
    </g>
  </g>
  <g>
    <path class="cls-2" d="M1430.33,731.69c0,1.68-.42,3.09-1.25,4.24-.84,1.15-2.19,2.15-4.06,2.98-1.87.83-4.48,1.46-7.81,1.88-3.34.42-7.5.63-12.5.63s-9.49-.21-12.82-.63c-3.34-.42-5.94-1.05-7.81-1.88-1.88-.83-3.23-1.83-4.06-2.98-.84-1.15-1.25-2.56-1.25-4.24v-165.32c0-16.1-1.25-29.07-3.75-38.9-2.5-9.83-6.15-18.3-10.94-25.41-4.8-7.11-10.99-12.55-18.6-16.31-7.61-3.76-16.41-5.65-26.41-5.65-12.92,0-25.84,4.6-38.76,13.8-12.92,9.21-26.47,22.69-40.64,40.47v197.32c0,1.68-.42,3.09-1.25,4.24-.84,1.15-2.19,2.15-4.06,2.98-1.87.83-4.48,1.46-7.81,1.88-3.34.42-7.61.63-12.82.63s-9.17-.21-12.5-.63c-3.34-.42-5.99-1.05-7.97-1.88-1.98-.83-3.34-1.83-4.06-2.98-.73-1.15-1.09-2.56-1.09-4.24v-419.11c0-1.67.36-3.14,1.09-4.39.73-1.25,2.08-2.3,4.06-3.14,1.98-.83,4.63-1.46,7.97-1.88,3.33-.42,7.5-.63,12.5-.63s9.48.21,12.82.63c3.33.42,5.94,1.05,7.81,1.88,1.88.84,3.23,1.88,4.06,3.14.83,1.25,1.25,2.72,1.25,4.39v169.09c14.79-15.69,29.7-27.34,44.7-34.98,15-7.63,30.11-11.45,45.33-11.45,18.75,0,34.54,3.19,47.36,9.57,12.82,6.38,23.18,14.9,31.1,25.57,7.92,10.67,13.6,23.16,17.04,37.49,3.44,14.33,5.16,31.64,5.16,51.92v171.91Z"/>
    <path class="cls-2" d="M1709.97,353.99c0,12.13-2.3,20.39-6.88,24.78-4.59,4.39-13.03,6.59-25.32,6.59s-20.37-2.14-24.85-6.43c-4.48-4.28-6.72-12.39-6.72-24.31s2.29-20.39,6.88-24.78c4.58-4.39,13.02-6.59,25.32-6.59s20.37,2.15,24.85,6.43c4.48,4.29,6.72,12.39,6.72,24.31ZM1704.03,731.69c0,1.68-.42,3.09-1.25,4.24-.84,1.15-2.19,2.15-4.06,2.98-1.87.83-4.48,1.46-7.81,1.88-3.34.42-7.61.63-12.82.63s-9.17-.21-12.5-.63c-3.34-.42-5.99-1.05-7.97-1.88-1.98-.83-3.34-1.83-4.06-2.98-.73-1.15-1.09-2.56-1.09-4.24v-282.34c0-1.46.36-2.82,1.09-4.08.73-1.25,2.08-2.3,4.06-3.14,1.98-.83,4.63-1.46,7.97-1.88,3.33-.42,7.5-.63,12.5-.63s9.48.21,12.82.63c3.33.42,5.94,1.05,7.81,1.88,1.88.84,3.23,1.88,4.06,3.14.83,1.26,1.25,2.62,1.25,4.08v282.34Z"/>
    <path class="cls-2" d="M2169.67,731.69c0,1.68-.42,3.09-1.25,4.24-.84,1.15-2.19,2.15-4.06,2.98-1.87.83-4.48,1.46-7.81,1.88-3.34.42-7.5.63-12.5.63s-9.49-.21-12.82-.63c-3.34-.42-5.94-1.05-7.81-1.88-1.88-.83-3.23-1.83-4.06-2.98-.84-1.15-1.25-2.56-1.25-4.24v-165.32c0-16.1-1.25-29.07-3.75-38.9-2.5-9.83-6.15-18.3-10.94-25.41-4.8-7.11-10.99-12.55-18.6-16.31-7.61-3.76-16.41-5.65-26.41-5.65-12.92,0-25.84,4.6-38.76,13.8-12.92,9.21-26.47,22.69-40.64,40.47v197.32c0,1.68-.42,3.09-1.25,4.24-.84,1.15-2.19,2.15-4.06,2.98-1.87.83-4.48,1.46-7.81,1.88-3.34.42-7.61.63-12.82.63s-9.17-.21-12.5-.63c-3.34-.42-5.99-1.05-7.97-1.88-1.98-.83-3.34-1.83-4.06-2.98-.73-1.15-1.09-2.56-1.09-4.24v-282.34c0-1.67.31-3.08.94-4.24.62-1.15,1.87-2.2,3.75-3.14s4.27-1.57,7.19-1.88c2.92-.31,6.77-.47,11.57-.47s8.39.16,11.41.47c3.02.31,5.36.94,7.03,1.88,1.67.94,2.86,1.99,3.59,3.14.73,1.15,1.09,2.56,1.09,4.24v37.33c15.83-17.77,31.62-30.79,47.36-39.06,15.73-8.26,31.62-12.39,47.67-12.39,18.75,0,34.54,3.19,47.36,9.57,12.82,6.38,23.18,14.9,31.1,25.57,7.92,10.67,13.6,23.16,17.04,37.49,3.44,14.33,5.16,31.53,5.16,51.6v172.23Z"/>
    <path class="cls-2" d="M2632.8,731.69c0,1.68-.37,3.14-1.09,4.39-.73,1.25-1.98,2.25-3.75,2.98-1.77.73-4.12,1.3-7.03,1.73-2.92.42-6.46.63-10.63.63-4.38,0-8.02-.21-10.94-.63-2.92-.42-5.31-1-7.19-1.73-1.87-.73-3.23-1.73-4.06-2.98-.84-1.26-1.25-2.72-1.25-4.39v-37.33c-14.8,16.11-30.16,28.66-46.11,37.64-15.94,8.99-33.4,13.49-52.36,13.49-20.63,0-38.24-4.03-52.83-12.08-14.59-8.05-26.41-18.92-35.48-32.62-9.07-13.7-15.68-29.8-19.85-48.31-4.17-18.51-6.25-38.01-6.25-58.51,0-24.26,2.6-46.16,7.81-65.72,5.21-19.55,12.92-36.23,23.13-50.04,10.21-13.8,22.87-24.42,37.98-31.84,15.11-7.42,32.56-11.14,52.36-11.14,16.46,0,31.52,3.61,45.17,10.82,13.65,7.22,27.14,17.83,40.48,31.84v-164.07c0-1.46.36-2.87,1.09-4.23.73-1.36,2.13-2.4,4.22-3.14,2.08-.73,4.74-1.36,7.97-1.88,3.23-.52,7.35-.78,12.35-.78s9.48.27,12.82.78c3.33.52,5.94,1.15,7.81,1.88,1.88.73,3.28,1.78,4.22,3.14.94,1.36,1.41,2.77,1.41,4.23v417.86ZM2580.91,533.12c-13.96-17.36-27.46-30.59-40.48-39.68-13.03-9.1-26.62-13.65-40.79-13.65-13.13,0-24.28,3.14-33.45,9.41-9.17,6.27-16.62,14.54-22.35,24.78-5.73,10.25-9.9,21.86-12.5,34.82-2.61,12.97-3.91,26.15-3.91,39.53,0,14.22,1.09,28.13,3.28,41.72,2.19,13.6,5.99,25.68,11.41,36.23,5.42,10.56,12.61,19.03,21.57,25.41,8.96,6.38,20.21,9.57,33.76,9.57,6.88,0,13.49-.94,19.85-2.82,6.36-1.88,12.87-5.02,19.54-9.41,6.67-4.39,13.65-10.09,20.94-17.1,7.29-7,15-15.63,23.13-25.88v-112.93Z"/>
  </g>
</svg>